<svg id="visual" viewBox="0 0 600 150" width="600" height="150" xmlns="http://www.w3.org/2000/svg" xmlns:xlink="http://www.w3.org/1999/xlink" version="1.1"><rect x="0" y="0" width="600" height="150" fill="#ff8300"></rect><path d="M0 80L14.3 78C28.7 76 57.3 72 85.8 71.5C114.3 71 142.7 74 171.2 77.7C199.7 81.3 228.3 85.7 257 89.3C285.7 93 314.3 96 343 88.5C371.7 81 400.3 63 428.8 61.7C457.3 60.3 485.7 75.7 514.2 83.8C542.7 92 571.3 93 585.7 93.5L600 94L600 151L585.7 151C571.3 151 542.7 151 514.2 151C485.7 151 457.3 151 428.8 151C400.3 151 371.7 151 343 151C314.3 151 285.7 151 257 151C228.3 151 199.7 151 171.2 151C142.7 151 114.3 151 85.8 151C57.3 151 28.7 151 14.3 151L0 151Z" fill="#ffffff" stroke-linecap="round" stroke-linejoin="miter"></path></svg>