<svg id="visual" viewBox="0 0 600 150" width="600" height="150" xmlns="http://www.w3.org/2000/svg" xmlns:xlink="http://www.w3.org/1999/xlink" version="1.1"><rect x="0" y="0" width="600" height="150" fill="#ff8300"></rect><path d="M0 121L14.3 120.3C28.7 119.7 57.3 118.3 85.8 118.2C114.3 118 142.7 119 171.2 120.3C199.7 121.7 228.3 123.3 257 124.8C285.7 126.3 314.3 127.7 343 124.7C371.7 121.7 400.3 114.3 428.8 113.8C457.3 113.3 485.7 119.7 514.2 123C542.7 126.3 571.3 126.7 585.7 126.8L600 127L600 151L585.7 151C571.3 151 542.7 151 514.2 151C485.7 151 457.3 151 428.8 151C400.3 151 371.7 151 343 151C314.3 151 285.7 151 257 151C228.3 151 199.7 151 171.2 151C142.7 151 114.3 151 85.8 151C57.3 151 28.7 151 14.3 151L0 151Z" fill="#ffffff" stroke-linecap="round" stroke-linejoin="miter"></path></svg>